<?xml version="1.0" standalone="no"?>
<!DOCTYPE svg PUBLIC "-//W3C//DTD SVG 20010904//EN"
 "http://www.w3.org/TR/2001/REC-SVG-20010904/DTD/svg10.dtd">
<svg version="1.0" xmlns="http://www.w3.org/2000/svg"
 width="1024.000000pt" height="1024.000000pt" viewBox="0 0 1024.000000 1024.000000"
 preserveAspectRatio="xMidYMid meet">

<g transform="translate(0.000000,1024.000000) scale(0.100000,-0.100000)"
fill="#000000" stroke="none">
<path d="M4957 8194 c-3 -4 -50 -8 -104 -9 -228 -7 -582 -89 -868 -202 -222
-88 -532 -250 -605 -318 -14 -12 -38 -30 -55 -38 -52 -26 -213 -152 -338 -264
-262 -235 -475 -505 -645 -818 -149 -272 -265 -611 -307 -891 -9 -60 -21 -111
-26 -115 -6 -3 -37 -9 -69 -12 -32 -4 -70 -12 -84 -18 -14 -7 -29 -10 -31 -7
-7 7 12 162 31 257 8 40 13 75 11 77 -6 6 -44 -150 -52 -216 -4 -30 -19 -95
-32 -145 -24 -83 -26 -110 -30 -349 -6 -292 2 -370 50 -516 31 -93 31 -94 37
-55 l5 39 13 -27 c16 -37 71 -61 107 -47 30 11 49 28 57 50 3 9 8 0 11 -20 43
-258 79 -390 159 -593 141 -358 355 -684 649 -988 240 -247 588 -494 874 -618
61 -26 233 -81 255 -81 4 0 35 -18 68 -41 79 -52 153 -82 299 -119 282 -71
511 -95 841 -87 456 10 849 104 1247 296 361 174 668 397 935 679 129 137 234
270 341 434 68 103 101 158 134 223 17 33 36 69 42 80 95 159 221 528 254 745
6 41 15 79 20 85 6 5 9 4 9 -4 0 -42 88 -54 133 -18 30 24 32 35 22 114 -5 34
-2 79 9 135 28 145 49 662 28 695 -12 19 -61 34 -132 41 l-65 7 -3 40 c-11
159 -101 493 -192 710 -197 470 -567 941 -995 1266 -199 151 -557 357 -652
375 -20 4 -55 20 -77 35 -76 54 -409 157 -619 194 -151 26 -371 45 -515 45
-76 0 -141 -3 -145 -6z m303 -377 l135 -103 3 -287 c1 -158 0 -287 -4 -287
-14 0 -104 77 -110 94 -3 10 -6 92 -5 182 l0 164 -32 30 c-18 17 -56 47 -85
67 l-52 37 -33 -24 c-17 -13 -73 -57 -124 -97 -51 -41 -96 -73 -100 -70 -4 3
-6 48 -3 100 l5 95 125 101 c68 56 129 101 135 101 5 0 71 -46 145 -103z
m-570 -562 l0 -75 -164 0 -164 0 -4 75 -3 75 168 0 167 0 0 -75z m1200 0 l0
-75 -170 0 -170 0 0 75 0 75 170 0 170 0 0 -75z m-1013 -82 c-9 -9 -20 -13
-24 -9 -4 4 -1 11 7 16 25 16 35 11 17 -7z m347 -120 l96 -77 -2 -280 -3 -281
-67 -3 -68 -3 0 241 c0 196 -3 240 -14 240 -7 0 -34 -3 -60 -6 l-46 -7 0 -233
0 -234 -65 0 -65 0 0 293 0 292 87 68 c48 37 92 67 98 67 7 0 56 -35 109 -77z
m-474 -337 l0 -306 -60 0 -60 0 0 230 0 230 -81 0 -81 0 2 -217 c1 -120 2
-224 1 -230 -1 -9 -21 -13 -66 -13 l-65 0 0 303 0 303 205 3 205 2 0 -305z
m1155 -1 l0 -300 -67 -3 -68 -3 0 231 0 230 -75 0 -75 0 0 -214 c0 -118 -3
-221 -6 -230 -5 -12 -21 -16 -65 -16 l-58 0 -3 300 c-3 292 -3 299 17 303 11
3 106 4 210 3 l190 -1 0 -300z m674 -209 c2 -66 -6 -35 -12 49 -4 60 -3 69 3
35 5 -25 9 -63 9 -84z m348 2 c-3 -8 -6 -5 -6 6 -1 11 2 17 5 13 3 -3 4 -12 1
-19z m-390 -150 c-2 -24 -4 -5 -4 42 0 47 2 66 4 43 2 -24 2 -62 0 -85z m392
35 c-2 -79 -2 -83 -8 -34 -6 50 -3 121 5 121 2 0 3 -39 3 -87z m-32 10 c-3
-10 -5 -4 -5 12 0 17 2 24 5 18 2 -7 2 -21 0 -30z m-340 -65 c-2 -13 -4 -3 -4
22 0 25 2 35 4 23 2 -13 2 -33 0 -45z m26 -65 c-3 -65 -10 -113 -16 -113 -6 0
-7 23 -3 61 3 34 6 89 6 122 0 37 4 57 9 52 5 -6 7 -60 4 -122z m-3483 -93 l0
-190 -70 0 -70 0 0 129 0 129 63 61 c34 33 65 61 70 61 4 0 7 -85 7 -190z
m4078 133 l62 -58 0 -133 0 -133 -67 3 -68 3 -2 188 c0 103 2 187 6 187 4 0
35 -26 69 -57z m-248 -173 l0 -140 -50 0 -51 0 5 38 c3 20 5 48 5 61 l1 24 19
-22 18 -21 7 31 c3 17 6 48 6 68 0 20 3 47 7 60 6 23 7 23 14 5 6 -16 8 -15 8
9 1 15 3 27 6 27 3 0 5 -63 5 -140z m-970 -76 l0 -145 -29 20 c-28 20 -42 21
-350 21 l-321 0 0 -1207 -1 -1208 -70 -74 -71 -73 -79 78 -79 79 0 1202 0
1203 -312 0 -311 0 -33 -25 c-18 -14 -35 -25 -38 -25 -3 0 -6 68 -6 150 l0
150 850 0 850 0 0 -146z m591 51 c7 18 8 17 8 -7 1 -20 -3 -26 -14 -22 -9 4
-14 17 -14 33 l2 26 5 -25 c4 -23 5 -24 13 -5z m-3117 -57 c-2 -43 -6 -54 -21
-56 -17 -2 -19 4 -20 47 0 38 2 48 13 44 9 -3 14 1 14 12 0 9 4 14 9 11 4 -3
7 -29 5 -58z m-87 30 c-3 -8 -6 -5 -6 6 -1 11 2 17 5 13 3 -3 4 -12 1 -19z
m436 -40 c6 -44 3 -48 -48 -48 -48 0 -57 6 -48 38 4 18 8 19 24 9 16 -10 21
-8 34 11 22 30 32 28 38 -10z m2777 -28 c9 -16 8 -20 -5 -20 -8 0 -15 9 -15
20 0 11 2 20 5 20 2 0 9 -9 15 -20z m-3200 -10 c0 -5 -5 -10 -11 -10 -5 0 -7
5 -4 10 3 6 8 10 11 10 2 0 4 -4 4 -10z m-247 -277 c-3 -30 31 -142 166 -542
94 -277 175 -510 180 -518 6 -11 28 45 71 178 35 107 112 342 172 524 83 247
109 338 105 362 l-6 33 166 0 165 0 -31 -35 c-17 -20 -32 -37 -33 -38 -2 -1
-5 -514 -8 -1139 l-5 -1137 -85 65 c-47 36 -104 81 -128 100 l-42 35 2 640 c2
351 1 639 -2 639 -3 0 -77 -216 -165 -481 -158 -476 -170 -508 -178 -499 -3 3
-81 235 -175 515 l-170 510 -7 -220 c-4 -120 -5 -276 -2 -345 4 -69 3 -153 -1
-188 l-7 -63 -94 70 c-52 39 -112 87 -133 106 l-38 36 0 657 c0 725 5 666 -63
740 l-31 32 191 0 191 0 -5 -37z m3850 9 c275 -75 456 -299 457 -568 0 -75
-31 -200 -66 -263 -63 -118 -187 -218 -329 -268 -76 -26 -91 -28 -315 -33
l-235 -5 -5 -507 -5 -506 -135 -97 c-74 -54 -139 -99 -145 -101 -7 -3 -9 375
-7 1132 l2 1136 -21 34 c-11 18 -32 43 -47 55 l-27 21 400 -5 c366 -4 407 -6
478 -25z m-1166 -114 c-2 -13 -4 -3 -4 22 0 25 2 35 4 23 2 -13 2 -33 0 -45z
m-1160 -170 c-2 -13 -4 -3 -4 22 0 25 2 35 4 23 2 -13 2 -33 0 -45z m963 30
c0 -18 -2 -20 -9 -8 -6 8 -7 18 -5 22 9 14 14 9 14 -14z m277 -40 c-3 -8 -6
-5 -6 6 -1 11 2 17 5 13 3 -3 4 -12 1 -19z m-1220 -70 c-2 -13 -4 -3 -4 22 0
25 2 35 4 23 2 -13 2 -33 0 -45z m1140 -125 c-2 -37 -3 -9 -3 62 0 72 1 102 3
68 2 -34 2 -93 0 -130z m-1430 125 c-2 -13 -4 -5 -4 17 -1 22 1 32 4 23 2 -10
2 -28 0 -40z m1184 -18 c5 0 9 -18 9 -40 0 -28 4 -40 14 -40 21 0 24 -7 32
-89 4 -47 3 -72 -3 -68 -6 4 -10 -25 -10 -72 0 -42 -4 -116 -8 -164 -4 -59 -3
-87 4 -87 6 0 12 34 14 83 1 45 3 -10 3 -123 0 -113 -2 -168 -3 -122 -3 60 -7
82 -16 79 -8 -2 -13 -40 -15 -120 -2 -100 0 -117 13 -117 12 0 15 -13 15 -59
0 -32 2 -85 4 -117 2 -32 1 -42 -1 -21 -3 24 -9 37 -16 34 -15 -5 -22 -77 -8
-77 7 0 11 -26 12 -62 1 -47 3 -57 9 -38 4 14 8 -100 9 -257 1 -246 -1 -283
-14 -283 -12 0 -15 14 -14 75 1 41 5 78 10 81 5 3 8 78 7 167 -2 138 -3 145
-5 47 -2 -63 -7 -124 -13 -135 -5 -11 -11 -33 -12 -50 -2 -22 -9 -31 -25 -33
-19 -3 -23 -10 -23 -38 0 -19 -4 -34 -10 -34 -5 0 -11 -37 -13 -82 -1 -46 -4
296 -5 760 -1 463 0 842 2 842 30 0 31 -13 28 -245 -2 -129 0 -235 5 -235 16
1 43 27 43 43 0 9 -9 22 -21 31 -20 14 -21 21 -17 164 3 124 7 152 21 166 20
21 20 19 5 50 -9 21 -8 29 5 44 15 16 15 20 1 40 -8 12 -22 22 -30 22 -16 0
-17 20 -6 100 6 50 7 52 10 18 2 -21 7 -38 13 -38z m-900 -80 c5 0 9 -18 9
-40 0 -29 -4 -40 -15 -40 -12 0 -15 15 -13 83 1 45 3 63 5 40 2 -24 8 -43 14
-43z m86 -42 c-2 -24 -4 -5 -4 42 0 47 2 66 4 43 2 -24 2 -62 0 -85z m870 60
c-2 -13 -4 -3 -4 22 0 25 2 35 4 23 2 -13 2 -33 0 -45z m-1270 0 c-2 -13 -4
-5 -4 17 -1 22 1 32 4 23 2 -10 2 -28 0 -40z m90 5 c-3 -10 -5 -2 -5 17 0 19
2 27 5 18 2 -10 2 -26 0 -35z m3589 -169 c-4 -13 -28 -34 -60 -53 -30 -17 -64
-40 -75 -53 l-21 -22 0 81 c0 100 20 135 100 176 l55 28 3 -68 c2 -37 1 -77
-2 -89z m-5767 114 c54 -34 71 -71 71 -162 l0 -79 -22 20 c-13 12 -49 37 -80
57 l-58 37 0 80 0 81 28 -7 c15 -3 42 -16 61 -27z m3578 -30 c-2 -13 -4 -5 -4
17 -1 22 1 32 4 23 2 -10 2 -28 0 -40z m80 0 c-2 -13 -4 -5 -4 17 -1 22 1 32
4 23 2 -10 2 -28 0 -40z m-3344 -35 c-8 -88 -8 -88 -82 -117 -38 -15 -75 -34
-81 -42 -17 -19 -29 -18 -25 4 2 9 7 38 10 64 10 78 74 137 151 138 l32 0 -5
-47z m5127 37 c20 -5 51 -25 68 -43 27 -28 35 -46 42 -98 13 -86 13 -85 -12
-61 -26 23 -105 61 -129 62 -26 0 -36 21 -44 88 -7 60 -6 62 17 62 12 0 39 -5
58 -10z m-3353 -142 c-2 -24 -4 -7 -4 37 0 44 2 63 4 43 2 -21 2 -57 0 -80z
m40 60 c-2 -13 -4 -5 -4 17 -1 22 1 32 4 23 2 -10 2 -28 0 -40z m1490 -85 c-2
-16 -4 -5 -4 22 0 28 2 40 4 28 2 -13 2 -35 0 -50z m-1206 -13 c16 0 19 -7 19
-40 0 -33 -3 -40 -19 -40 -16 0 -21 -8 -24 -42 -2 -24 -4 11 -4 77 0 66 2 103
4 83 3 -30 9 -38 24 -38z m-2502 -41 c98 -43 161 -142 161 -253 0 -71 -11
-176 -19 -176 -3 0 -36 46 -74 103 -37 56 -78 119 -92 139 -23 33 -99 80 -167
102 -14 4 -18 17 -18 62 l0 57 82 -7 c46 -4 102 -16 127 -27z m6071 -23 l0
-53 -60 -22 c-72 -27 -121 -67 -157 -130 -15 -25 -52 -82 -82 -126 l-56 -80
-11 95 c-16 147 7 235 77 294 63 53 123 73 232 75 l57 1 0 -54z m-5600 -5 c0
-28 -28 -103 -47 -123 -9 -10 -45 -27 -80 -38 -35 -11 -73 -25 -85 -31 -20
-11 -21 -10 -14 37 14 108 82 169 194 173 25 1 32 -3 32 -18z m5072 -16 c15
-11 36 -36 47 -56 21 -37 39 -119 26 -119 -4 0 -45 11 -91 25 l-83 26 -24 52
c-14 29 -28 63 -32 76 -7 23 -7 23 62 19 48 -2 76 -9 95 -23z m-1905 -57 c-2
-13 -4 -3 -4 22 0 25 2 35 4 23 2 -13 2 -33 0 -45z m20 0 c-2 -13 -4 -3 -4 22
0 25 2 35 4 23 2 -13 2 -33 0 -45z m31 -145 c-2 -151 -5 -191 -10 -148 -7 56
0 355 8 355 2 0 3 -93 2 -207z m40 164 c-5 -48 -28 -46 -28 2 0 32 3 39 16 34
10 -4 14 -16 12 -36z m-1208 -61 c0 -13 -3 -31 -6 -40 -11 -29 -24 -16 -24 24
0 29 4 40 15 40 9 0 15 -9 15 -24z m-283 -221 c-1 -102 -5 -154 -12 -152 -11
4 -20 256 -10 295 14 58 24 -2 22 -143z m1483 -5 c6 0 9 -60 8 -152 l-2 -153
-6 120 -6 120 -5 -85 c-3 -47 -5 7 -5 120 0 113 2 166 3 118 2 -49 8 -88 13
-88z m-63 48 c-2 -24 -4 -7 -4 37 0 44 2 63 4 43 2 -21 2 -57 0 -80z m-1097 4
c0 -21 -4 -42 -9 -47 -5 -6 -11 -26 -14 -45 -2 -19 -5 -1 -5 41 -1 42 1 79 5
82 15 16 23 5 23 -31z m1077 -295 c-1 -45 -3 -5 -3 88 0 94 2 130 3 82 2 -48
2 -125 0 -170z m-1050 191 c-2 -13 -4 -5 -4 17 -1 22 1 32 4 23 2 -10 2 -28 0
-40z m-20 -200 c-2 -35 -3 -7 -3 62 0 69 1 97 3 63 2 -35 2 -91 0 -125z m1115
-73 c-7 -70 -7 -70 -13 -25 -5 36 -6 27 -7 -41 -2 -69 -5 -86 -17 -86 -18 0
-22 83 -4 89 7 2 13 60 17 163 l6 160 13 -95 c7 -57 10 -123 5 -165z m-1425
193 c-2 -13 -4 -5 -4 17 -1 22 1 32 4 23 2 -10 2 -28 0 -40z m220 -80 c-2 -13
-4 -5 -4 17 -1 22 1 32 4 23 2 -10 2 -28 0 -40z m42 0 c1 -10 -6 -18 -15 -18
-12 0 -15 6 -10 23 3 12 6 29 7 37 1 20 17 -18 18 -42z m-312 -80 c-2 -13 -4
-5 -4 17 -1 22 1 32 4 23 2 -10 2 -28 0 -40z m18 -178 c-6 -143 -5 -160 9
-160 12 0 16 -10 16 -40 0 -29 -4 -40 -15 -40 -11 0 -15 11 -15 40 0 22 -4 40
-10 40 -11 0 -14 143 -3 153 3 4 5 34 4 67 -2 58 4 100 16 100 3 0 2 -72 -2
-160z m252 98 c-2 -13 -4 -3 -4 22 0 25 2 35 4 23 2 -13 2 -33 0 -45z m-210
-160 c-2 -13 -4 -3 -4 22 0 25 2 35 4 23 2 -13 2 -33 0 -45z m210 -180 c-1
-46 -3 -9 -3 82 0 91 2 128 3 83 2 -46 2 -120 0 -165z m1230 180 c-2 -13 -4
-3 -4 22 0 25 2 35 4 23 2 -13 2 -33 0 -45z m-70 -140 c-2 -24 -4 -5 -4 42 0
47 2 66 4 43 2 -24 2 -62 0 -85z m20 0 c-2 -24 -4 -5 -4 42 0 47 2 66 4 43 2
-24 2 -62 0 -85z m90 60 c-2 -13 -4 -5 -4 17 -1 22 1 32 4 23 2 -10 2 -28 0
-40z m-1467 -63 c0 -19 -4 -35 -10 -35 -5 0 -10 -18 -10 -40 0 -22 -4 -40 -8
-40 -8 0 -7 30 4 108 7 51 24 56 24 7z m1447 -27 c-2 -13 -4 -3 -4 22 0 25 2
35 4 23 2 -13 2 -33 0 -45z m-17 -49 c0 -28 -4 -39 -12 -37 -24 8 -22 78 2 78
5 0 10 -18 10 -41z m-1423 -16 c-3 -10 -5 -2 -5 17 0 19 2 27 5 18 2 -10 2
-26 0 -35z m300 -85 c-2 -13 -4 -3 -4 22 0 25 2 35 4 23 2 -13 2 -33 0 -45z
m1050 0 c-2 -13 -4 -3 -4 22 0 25 2 35 4 23 2 -13 2 -33 0 -45z m-1420 -60
c-2 -24 -4 -7 -4 37 0 44 2 63 4 43 2 -21 2 -57 0 -80z m-1213 -23 c45 -76 59
-149 53 -263 -3 -58 -9 -107 -12 -110 -11 -11 -73 70 -107 138 -32 62 -33 70
-33 180 0 63 4 124 8 134 7 18 10 17 38 -10 16 -15 40 -47 53 -69z m3951 -48
c0 -119 -1 -125 -33 -187 -36 -70 -97 -149 -107 -138 -4 3 -7 64 -8 135 -1
151 17 210 85 288 56 64 63 53 63 -98z m-2471 53 c3 -30 6 -64 8 -74 2 -10 -3
-21 -9 -23 -10 -4 -13 16 -13 78 0 93 5 100 14 19z m1223 -2 c-2 -13 -4 -5 -4
17 -1 22 1 32 4 23 2 -10 2 -28 0 -40z m40 -60 c-2 -24 -4 -7 -4 37 0 44 2 63
4 43 2 -21 2 -57 0 -80z m-110 -20 c-2 -13 -4 -3 -4 22 0 25 2 35 4 23 2 -13
2 -33 0 -45z m-1070 20 c-3 -7 -5 -2 -5 12 0 14 2 19 5 13 2 -7 2 -19 0 -25z
m3 -33 c0 -8 -7 -15 -15 -15 -13 0 -14 3 -3 15 16 18 18 18 18 0z m-2032 -10
c102 -24 169 -63 264 -154 48 -46 88 -88 88 -94 0 -6 -31 -8 -91 -4 -148 10
-252 70 -331 191 -21 33 -38 63 -38 68 0 12 37 10 108 -7z m4892 1 c0 -23 -91
-137 -137 -172 -63 -48 -141 -73 -246 -81 l-92 -6 50 54 c110 118 205 179 318
204 83 18 107 18 107 1z m-2042 -38 c-2 -24 -7 -43 -13 -43 -5 0 -11 19 -13
43 -3 33 0 42 13 42 13 0 16 -9 13 -42z m-911 -160 c-2 -24 -4 -7 -4 37 0 44
2 63 4 43 2 -21 2 -57 0 -80z m-1192 31 c68 -90 86 -179 67 -338 l-7 -54 -42
46 c-60 65 -85 120 -91 199 -4 65 14 198 27 198 4 0 24 -23 46 -51z m3365 -25
c16 -83 9 -178 -18 -229 -22 -43 -89 -125 -101 -125 -5 0 -11 47 -15 105 -7
93 -5 113 14 168 21 65 85 162 99 152 5 -2 14 -34 21 -71z m-1307 -89 c-6
-119 -6 -121 35 -116 9 1 12 -20 12 -78 0 -64 -3 -79 -14 -75 -7 3 -20 -2 -28
-10 -14 -13 -15 1 -16 122 -1 132 6 272 14 272 2 0 0 -52 -3 -115z m97 80 c0
-19 -3 -35 -7 -35 -7 0 -9 45 -4 65 4 18 11 -1 11 -30z m-30 -81 c0 -27 -4
-34 -20 -34 -16 0 -20 7 -20 34 0 32 15 49 33 39 4 -2 7 -20 7 -39z m-239
-166 c-8 -24 -30 -53 -69 -86 -32 -28 -78 -78 -102 -111 l-44 -60 -28 42 c-15
23 -64 76 -108 117 -88 80 -98 103 -100 208 0 49 10 52 68 23 56 -29 102 -83
122 -143 14 -44 21 -53 40 -53 20 0 28 10 47 60 25 65 67 110 137 145 l41 20
3 -62 c2 -35 -2 -79 -7 -100z m-694 70 c-2 -13 -4 -3 -4 22 0 25 2 35 4 23 2
-13 2 -33 0 -45z m-1501 -32 c74 -23 249 -145 231 -162 -4 -4 -43 -9 -86 -12
-140 -8 -247 32 -338 125 -29 29 -53 59 -53 65 0 16 181 4 246 -16z m4164 15
c0 -17 -94 -107 -140 -134 -65 -37 -151 -57 -250 -56 -127 1 -131 5 -59 64 73
60 150 101 227 119 65 16 222 21 222 7z m-2557 -108 c5 -86 4 -101 -8 -90 -7
6 -10 13 -7 14 4 2 5 45 3 95 -1 51 -1 91 2 88 3 -3 7 -51 10 -107z m864 -15
c-2 -24 -4 -5 -4 42 0 47 2 66 4 43 2 -24 2 -62 0 -85z m-970 10 c-3 -8 -6 -5
-6 6 -1 11 2 17 5 13 3 -3 4 -12 1 -19z m1270 -170 c-2 -24 -4 -7 -4 37 0 44
2 63 4 43 2 -21 2 -57 0 -80z m-301 -126 c-3 -2 -17 -2 -31 2 -18 5 -25 13
-25 31 0 13 5 27 10 30 18 11 10 25 -15 25 -20 0 -25 6 -32 38 l-7 37 -7 -30
-7 -30 -1 33 c-1 20 6 40 16 50 16 16 16 16 10 0 -5 -16 0 -18 39 -18 29 0 43
4 39 10 -4 6 -3 19 2 28 5 11 9 -24 11 -92 1 -60 1 -111 -2 -114z m-876 193
c8 -10 11 -35 8 -70 -3 -31 -1 -50 3 -43 6 9 9 4 9 -14 0 -16 -5 -28 -10 -28
-7 0 -7 -6 0 -20 6 -11 9 -37 8 -59 -3 -34 -5 -38 -20 -30 -10 5 -18 16 -18
24 0 22 -30 18 -57 -7 l-23 -21 0 41 c0 23 5 42 10 42 6 0 10 19 9 43 0 32 -2
37 -9 22 -6 -13 -8 5 -8 55 0 41 2 67 5 58 4 -18 23 -25 23 -10 0 8 36 30 51
31 4 1 12 -6 19 -14z m1067 -87 c-2 -13 -4 -3 -4 22 0 25 2 35 4 23 2 -13 2
-33 0 -45z m-2262 -33 c74 -16 241 -93 270 -125 16 -18 15 -19 -32 -27 -87
-15 -243 -10 -300 10 -54 19 -144 74 -203 126 l-35 30 115 1 c64 0 146 -7 185
-15z m1965 -5 c0 -11 -2 -20 -4 -20 -2 0 -6 9 -9 20 -3 11 -1 20 4 20 5 0 9
-9 9 -20z m1389 -33 c-118 -111 -254 -145 -455 -116 l-77 12 24 18 c44 34 154
86 224 107 101 30 99 30 225 30 l115 1 -56 -52z m-1041 -4 c-2 -32 1 -47 10
-49 7 -1 8 0 2 3 -19 9 -10 24 10 18 15 -5 22 -1 29 17 11 26 14 5 5 -29 -4
-13 -11 -20 -16 -16 -6 3 -8 0 -6 -8 8 -23 -74 -81 -90 -64 -11 11 -1 77 13
92 8 8 15 23 15 34 0 10 5 19 10 19 6 0 10 7 10 15 0 8 3 15 6 15 3 0 4 -21 2
-47z m29 -15 c-3 -8 -6 -5 -6 6 -1 11 2 17 5 13 3 -3 4 -12 1 -19z m-357 -6
c0 -10 -7 -19 -15 -19 -15 0 -20 18 -8 30 12 13 23 7 23 -11z m-1120 -2 c0 -5
-4 -10 -9 -10 -6 0 -13 5 -16 10 -3 6 1 10 9 10 9 0 16 -4 16 -10z m47 -62
c-2 -13 -4 -3 -4 22 0 25 2 35 4 23 2 -13 2 -33 0 -45z m1163 18 c0 -19 -4
-22 -25 -18 -14 2 -25 8 -25 13 0 8 26 23 48 28 1 1 2 -10 2 -23z m-60 -22 c0
-7 -13 -14 -30 -16 -23 -3 -30 -1 -30 12 0 11 9 16 30 15 17 0 30 -5 30 -11z
m-1150 -3 c0 -6 -5 -13 -12 -17 -6 -4 -8 -3 -4 4 3 6 -2 13 -11 15 -14 4 -13
5 5 6 12 0 22 -3 22 -8z"/>
<path d="M6912 6140 c0 -14 2 -19 5 -12 2 6 2 18 0 25 -3 6 -5 1 -5 -13z"/>
<path d="M6476 5513 c-3 -4 -6 -154 -6 -335 l0 -328 203 0 c201 0 202 0 262
29 67 32 134 93 161 149 15 29 19 60 19 142 0 94 -3 110 -27 155 -35 66 -122
150 -178 172 -36 13 -83 17 -237 19 -105 1 -194 0 -197 -3z"/>
<path d="M5502 4910 c0 -19 2 -27 5 -17 2 9 2 25 0 35 -3 9 -5 1 -5 -18z"/>
<path d="M5520 4395 c0 -43 4 -75 10 -75 6 0 10 32 10 75 0 43 -4 75 -10 75
-6 0 -10 -32 -10 -75z"/>
<path d="M5521 4118 c0 -69 3 -119 9 -123 12 -7 12 88 0 180 -6 53 -7 45 -9
-57z"/>
<path d="M5520 3880 c0 -22 5 -40 10 -40 6 0 10 18 10 40 0 22 -4 40 -10 40
-5 0 -10 -18 -10 -40z"/>
<path d="M5833 4360 c0 -25 2 -35 4 -22 2 12 2 32 0 45 -2 12 -4 2 -4 -23z"/>
<path d="M5500 3105 c0 -8 5 -15 10 -15 6 0 10 7 10 15 0 8 -4 15 -10 15 -5 0
-10 -7 -10 -15z"/>
<path d="M4721 2954 c0 -11 3 -14 6 -6 3 7 2 16 -1 19 -3 4 -6 -2 -5 -13z"/>
<path d="M4693 2835 c0 -22 2 -30 4 -17 2 12 2 30 0 40 -3 9 -5 -1 -4 -23z"/>
</g>
</svg>
